<svg width="20" height="20" viewBox="0 0 20 20" fill="none" xmlns="http://www.w3.org/2000/svg">
<rect width="20" height="20" rx="3.33333" fill="#C0028B"/>
<path d="M15.2 2.10083L14 3.50068L12.3 2.10083C12.2137 2.03544 12.1083 2.00005 12 2.00005C11.8917 2.00005 11.7863 2.03544 11.7 2.10083L10 3.50068L8.3 2.10083C8.21366 2.03544 8.10831 2.00005 8 2.00005C7.89169 2.00005 7.78634 2.03544 7.7 2.10083L6 3.50068L4.8 2.10083C4.46875 1.85398 4 2.08833 4 2.50079V17.4992C4 17.9117 4.46875 18.146 4.8 17.8992L6 16.4993L7.7 17.8992C7.78634 17.9646 7.89169 17.9999 8 17.9999C8.10831 17.9999 8.21366 17.9646 8.3 17.8992L10 16.4993L11.7 17.8992C11.7863 17.9646 11.8917 17.9999 12 17.9999C12.1083 17.9999 12.2137 17.9646 12.3 17.8992L14 16.4993L15.2 17.8992C15.5281 18.146 16 17.9117 16 17.4992V2.50079C16 2.08833 15.5312 1.85398 15.2 2.10083ZM14 13.2497C14 13.3871 13.8875 13.4996 13.75 13.4996H6.25C6.1125 13.4996 6 13.3871 6 13.2497V12.7497C6 12.6122 6.1125 12.4997 6.25 12.4997H13.75C13.8875 12.4997 14 12.6122 14 12.7497V13.2497ZM14 10.25C14 10.3875 13.8875 10.4999 13.75 10.4999H6.25C6.1125 10.4999 6 10.3875 6 10.25V9.75003C6 9.61254 6.1125 9.50005 6.25 9.50005H13.75C13.8875 9.50005 14 9.61254 14 9.75003V10.25ZM14 7.25029C14 7.38777 13.8875 7.50026 13.75 7.50026H6.25C6.1125 7.50026 6 7.38777 6 7.25029V6.75034C6 6.61286 6.1125 6.50037 6.25 6.50037H13.75C13.8875 6.50037 14 6.61286 14 6.75034V7.25029Z" fill="white"/>
</svg>
