<svg width="22" height="22" viewBox="0 0 22 22" fill="none" xmlns="http://www.w3.org/2000/svg">
<rect x="1" y="1" width="20" height="20" rx="3.33333" fill="#C0028B"/>
<path d="M6.33333 17.6664H15.6667C16.0203 17.6664 16.3594 17.5259 16.6095 17.2758C16.8595 17.0258 17 16.6867 17 16.333V8.9997C17 8.82288 16.9298 8.65332 16.8047 8.52829C16.6797 8.40327 16.5101 8.33303 16.3333 8.33303H14.3333V7.81503C14.3333 6.0757 13.0647 4.51836 11.3333 4.3497C10.8699 4.30364 10.402 4.3551 9.95966 4.50076C9.51732 4.64643 9.11038 4.88308 8.76501 5.19548C8.41964 5.50788 8.14349 5.88912 7.95433 6.31467C7.76516 6.74023 7.66717 7.20066 7.66667 7.66636V8.33303H5.66667C5.48986 8.33303 5.32029 8.40327 5.19526 8.52829C5.07024 8.65332 5 8.82288 5 8.9997V16.333C5 16.6867 5.14048 17.0258 5.39052 17.2758C5.64057 17.5259 5.97971 17.6664 6.33333 17.6664ZM14.3333 9.66636V10.9997H13V9.66636H14.3333ZM9 7.66636C9 6.5637 9.89733 5.66636 11 5.66636C12.1027 5.66636 13 6.5637 13 7.66636V8.33303H9V7.66636ZM7.66667 9.66636H9V10.9997H7.66667V9.66636Z" fill="white"/>
</svg>
