<svg width="54" height="50" viewBox="0 0 54 50" fill="none" xmlns="http://www.w3.org/2000/svg">
<path d="M37.1344 3.3C37.9951 3.3 38.8205 3.6266 39.4292 4.20797C40.0378 4.78933 40.3797 5.57783 40.3797 6.4V43.6C40.3797 44.4222 40.0378 45.2107 39.4292 45.792C38.8205 46.3734 37.9951 46.7 37.1344 46.7H17.6625C16.8018 46.7 15.9763 46.3734 15.3677 45.792C14.7591 45.2107 14.4172 44.4222 14.4172 43.6V6.4C14.4172 5.57783 14.7591 4.78933 15.3677 4.20797C15.9763 3.6266 16.8018 3.3 17.6625 3.3H37.1344ZM17.6625 0.199997C15.9411 0.199997 14.2902 0.853209 13.0729 2.01593C11.8557 3.17866 11.1719 4.75565 11.1719 6.4V43.6C11.1719 45.2443 11.8557 46.8213 13.0729 47.9841C14.2902 49.1468 15.9411 49.8 17.6625 49.8H37.1344C38.8558 49.8 40.5067 49.1468 41.7239 47.9841C42.9412 46.8213 43.625 45.2443 43.625 43.6V6.4C43.625 4.75565 42.9412 3.17866 41.7239 2.01593C40.5067 0.853209 38.8558 0.199997 37.1344 0.199997L17.6625 0.199997Z" fill="#18191A"/>
<path d="M27.3984 43.6C28.2592 43.6 29.0846 43.2734 29.6932 42.692C30.3018 42.1107 30.6438 41.3222 30.6438 40.5C30.6438 39.6778 30.3018 38.8893 29.6932 38.308C29.0846 37.7266 28.2592 37.4 27.3984 37.4C26.5377 37.4 25.7123 37.7266 25.1037 38.308C24.4951 38.8893 24.1531 39.6778 24.1531 40.5C24.1531 41.3222 24.4951 42.1107 25.1037 42.692C25.7123 43.2734 26.5377 43.6 27.3984 43.6Z" fill="#18191A"/>
<path d="M30.2922 21.3574L26.3656 20.2259C25.9111 20.097 25.5948 19.6781 25.5948 19.2126C25.5948 18.6289 26.0747 18.1563 26.6673 18.1563H29.0778C29.5214 18.1563 29.9577 18.2887 30.3213 18.5322C30.5431 18.679 30.8412 18.6432 31.0303 18.4606L32.2955 17.2432C32.5536 16.9961 32.5173 16.5843 32.2301 16.3659C31.3393 15.6784 30.2267 15.2952 29.0851 15.2917V13.5729C29.0851 13.2578 28.8233 13 28.5034 13H27.34C27.02 13 26.7582 13.2578 26.7582 13.5729V15.2917H26.6673C24.3514 15.2917 22.4898 17.2503 22.7044 19.5742C22.8571 21.2249 24.1368 22.5677 25.7511 23.0332L29.4778 24.1074C29.9323 24.2399 30.2486 24.6553 30.2486 25.1208C30.2486 25.7044 29.7686 26.1771 29.176 26.1771H26.7655C26.3219 26.1771 25.8856 26.0446 25.5221 25.8011C25.3003 25.6543 25.0022 25.6901 24.8131 25.8727L23.5479 27.0902C23.2897 27.3372 23.3261 27.749 23.6133 27.9674C24.5041 28.6549 25.6166 29.0381 26.7582 29.0417V30.7604C26.7582 31.0755 27.02 31.3333 27.34 31.3333H28.5034C28.8233 31.3333 29.0851 31.0755 29.0851 30.7604V29.0345C30.7794 29.0023 32.3682 28.0104 32.9281 26.4313C33.7098 24.2256 32.3973 21.9626 30.2922 21.3574V21.3574Z" fill="#C0028B"/>
<path d="M47.4081 20.8652H34.7079C34.4291 20.8652 34.2031 21.0848 34.2031 21.3556V23.6443C34.2031 23.9152 34.4291 24.1348 34.7079 24.1348H47.4081V26.0172C47.4081 26.891 48.4954 27.3287 49.1314 26.7108L52.7512 23.1936C53.1454 22.8105 53.1454 22.1895 52.7512 21.8064L49.1314 18.2893C48.4955 17.6713 47.4081 18.109 47.4081 18.9828V20.8652V20.8652Z" fill="#C0028B"/>
</svg>
