<svg width="20" height="20" viewBox="0 0 20 20" fill="none" xmlns="http://www.w3.org/2000/svg">
<rect width="20" height="20" rx="3.33333" fill="#C0028B"/>
<path d="M18 10C18 12.1217 17.1571 14.1566 15.6569 15.6569C14.1566 17.1571 12.1217 18 10 18C7.87827 18 5.84344 17.1571 4.34315 15.6569C2.84285 14.1566 2 12.1217 2 10C2 7.87827 2.84285 5.84344 4.34315 4.34315C5.84344 2.84285 7.87827 2 10 2C12.1217 2 14.1566 2.84285 15.6569 4.34315C17.1571 5.84344 18 7.87827 18 10ZM8.793 12.414C8.84076 12.3679 8.87885 12.3127 8.90505 12.2517C8.93125 12.1907 8.94505 12.1251 8.94563 12.0587C8.9462 11.9923 8.93355 11.9265 8.90841 11.865C8.88327 11.8036 8.84614 11.7477 8.7992 11.7008C8.75225 11.6539 8.69643 11.6167 8.63498 11.5916C8.57353 11.5664 8.50769 11.5538 8.4413 11.5544C8.37491 11.555 8.3093 11.5687 8.2483 11.5949C8.1873 11.6212 8.13212 11.6592 8.086 11.707L7.5 12.293V9H12.5V12.293L11.914 11.707C11.8197 11.6159 11.6934 11.5655 11.5623 11.5667C11.4312 11.5678 11.3058 11.6204 11.2131 11.7131C11.1204 11.8058 11.0678 11.9312 11.0667 12.0623C11.0655 12.1934 11.1159 12.3197 11.207 12.414L12.647 13.854C12.7408 13.9477 12.8679 14.0004 13.0005 14.0004C13.1331 14.0004 13.2602 13.9477 13.354 13.854L14.793 12.414C14.8841 12.3197 14.9345 12.1934 14.9333 12.0623C14.9322 11.9312 14.8796 11.8058 14.7869 11.7131C14.6942 11.6204 14.5688 11.5678 14.4377 11.5667C14.3066 11.5655 14.1803 11.6159 14.086 11.707L13.5 12.293V8.5C13.5 8.36739 13.4473 8.24021 13.3536 8.14645C13.2598 8.05268 13.1326 8 13 8H10.5V5.5C10.5 5.36739 10.4473 5.24021 10.3536 5.14645C10.2598 5.05268 10.1326 5 10 5C9.86739 5 9.74021 5.05268 9.64645 5.14645C9.55268 5.24021 9.5 5.36739 9.5 5.5V8H7C6.86739 8 6.74021 8.05268 6.64645 8.14645C6.55268 8.24021 6.5 8.36739 6.5 8.5V12.293L5.914 11.707C5.8197 11.6159 5.6934 11.5655 5.5623 11.5667C5.4312 11.5678 5.30579 11.6204 5.21309 11.7131C5.12039 11.8058 5.0678 11.9312 5.06666 12.0623C5.06552 12.1934 5.11592 12.3197 5.207 12.414L6.647 13.854C6.74076 13.9477 6.86792 14.0004 7.0005 14.0004C7.13308 14.0004 7.26024 13.9477 7.354 13.854L8.793 12.414Z" fill="white"/>
</svg>
