<svg width="53" height="50" viewBox="0 0 53 50" fill="none" xmlns="http://www.w3.org/2000/svg">
<path d="M50.0112 11.7826C49.789 11.5683 49.5243 11.3984 49.2327 11.2827C48.9411 11.1671 48.6283 11.1079 48.3125 11.1088H46.6166V7.29079C46.6159 6.68345 46.363 6.10117 45.9134 5.67171C45.4638 5.24225 44.8543 5.00068 44.2184 5H9.70741C7.8357 5.00003 6.04066 5.71028 4.71716 6.97452C3.39366 8.23876 2.65011 9.95342 2.65009 11.7413V37.9658C2.65011 39.7537 3.39366 41.4683 4.71716 42.7326C6.04066 43.9968 7.8357 44.7071 9.70741 44.7071H48.2181C48.8524 44.7059 49.4605 44.4652 49.9098 44.0374C50.359 43.6097 50.613 43.0296 50.6163 42.4236L50.7106 13.4074C50.7126 13.1058 50.6518 12.8068 50.5317 12.5279C50.4117 12.249 50.2347 11.9956 50.0112 11.7826V11.7826ZM47.4213 41.6527H9.70741C8.68374 41.6527 7.702 41.2642 6.97815 40.5728C6.2543 39.8814 5.84765 38.9436 5.84765 37.9658V11.7413C5.84765 10.7635 6.2543 9.8257 6.97815 9.13427C7.702 8.44283 8.68374 8.05439 9.70741 8.05439H43.4191V11.1088H9.84461V14.1632H47.5106L47.4213 41.6527Z" fill="#18191A"/>
<path d="M40.2215 25.6171H43.419V28.6715H40.2215V25.6171Z" fill="#18191A"/>
<path d="M10.9922 48C16.4848 48 20.9375 43.7467 20.9375 38.5C20.9375 33.2533 16.4848 29 10.9922 29C5.49954 29 1.04688 33.2533 1.04688 38.5C1.04688 43.7467 5.49954 48 10.9922 48Z" fill="white" stroke="#C0028B" stroke-width="1.9"/>
<path d="M10.9922 38.5H7.01407M10.9922 34.7V38.5V34.7ZM10.9922 38.5V42.2999V38.5ZM10.9922 38.5H14.9703H10.9922Z" stroke="#C0028B" stroke-width="1.9" stroke-linecap="round"/>
</svg>
